<svg width="524" height="220" xmlns="http://www.w3.org/2000/svg">
    <g fill-rule="nonzero" fill="none">
        <path d="M125.811 216v-45.901H150V137.29h-24.189V4H78.614L0 133.466v36.633h84.66V216h41.151zm-41.15-78.71H31.12l53.54-92.096v92.097z" fill="#121322"/>
        <path d="M262 220c27.33 0 46.497-9.51 57.498-28.53C330.499 172.452 336 145.344 336 110.148c0-35.196-5.5-62.353-16.502-81.47C308.497 9.558 289.331 0 262 0c-27.33 0-46.497 9.559-57.498 28.676C193.501 47.794 188 74.951 188 110.147c0 35.196 5.5 62.304 16.502 81.324C215.503 210.49 234.669 220 262 220zm0-34.118c-12.53 0-20.819-6.495-24.864-19.485-4.045-12.99-6.068-31.74-6.068-56.25 0-25.686 2.023-44.706 6.068-57.059 4.045-12.353 12.333-18.53 24.864-18.53 12.53 0 20.745 6.177 24.642 18.53 3.897 12.353 5.846 31.373 5.846 57.06 0 24.509-1.949 43.259-5.846 56.25-3.897 12.99-12.111 19.484-24.642 19.484z" fill="#141432"/>
        <path d="M499.811 216v-45.901H524V137.29h-24.189V4h-47.197L374 133.466v36.633h84.66V216h41.151zm-41.15-78.71h-53.54l53.54-92.096v92.097z" fill="#121322"/>
    </g>
</svg>
